# xmcd
#
# Track frame offsets: 
#        150
#        13579
#        25524
#        40608
#        54779
#        68420
#        81623
#        94806
#        109365
#        124344
#        136445
#        149969
#        162426
#        177211
#        189880
#        201829
#
# Disc length: 2890 seconds
#
# Revision: 1
# Processed by: cddbd v1.5.2PL0 Copyright (c) Steve Scherf et al.
# Submitted via: ExactAudioCopyFreeDBPlugin 1.0
#
DISCID=dd0b4810
DTITLE=Jimmie Rodgers - The Yodeler
DYEAR=1965
DGENRE=Country
TTITLE0=Blue Yodel No. 8
TTITLE1=The One Rose
TTITLE2=Looking For A New Mama
TTITLE3=Why There's A Tear In My Eye
TTITLE4=The Mystery Of Number Five
TTITLE5=The Wonderful City
TTITLE6=In The Jailhouse Now - No. 2
TTITLE7=Ninety-Nine Years Blue
TTITLE8=For The Sake Of Days Gone By
TTITLE9=Let Me Be Your Side Track
TTITLE10=T.B. Blue
TTITLE11=Travellin' Blues
TTITLE12=Jimmie's Mean Mama Blues
TTITLE13=Jimmie The Kid
TTITLE14=Blue Yodel No. 9
TTITLE15=I'm Lonesome Too
EXTD=
EXTT0=
EXTT1=
EXTT2=
EXTT3=
EXTT4=
EXTT5=
EXTT6=
EXTT7=
EXTT8=
EXTT9=
EXTT10=
EXTT11=
EXTT12=
EXTT13=
EXTT14=
EXTT15=
PLAYORDER=
